<svg width="32" height="32" viewBox="0 0 32 32" fill="none" xmlns="http://www.w3.org/2000/svg">
<path d="M31.0857 16.4572C31.0857 24.5363 24.5363 31.0858 16.4571 31.0858C13.8857 31.0858 11.4692 30.4223 9.36957 29.2572C8.05325 28.5268 4.68453 29.4278 3.65712 28.3429C2.8132 27.4518 4.2571 24.626 3.65712 23.5447C2.49203 21.4451 1.82855 19.0286 1.82855 16.4572C1.82855 8.37805 8.37799 1.82861 16.4571 1.82861C24.5363 1.82861 31.0857 8.37805 31.0857 16.4572Z" fill="url(#paint0_linear)"/>
<path d="M14.2857 15.9998C14.2857 16.4545 14.4663 16.8905 14.7878 17.212C15.1093 17.5335 15.5454 17.7141 16 17.7141C16.4547 17.7141 16.8907 17.5335 17.2122 17.212C17.5337 16.8905 17.7143 16.4545 17.7143 15.9998C17.7143 15.5451 17.5337 15.1091 17.2122 14.7876C16.8907 14.4661 16.4547 14.2855 16 14.2855C15.5454 14.2855 15.1093 14.4661 14.7878 14.7876C14.4663 15.1091 14.2857 15.5451 14.2857 15.9998ZM21.4285 15.9998C21.4285 16.4545 21.6091 16.8905 21.9306 17.212C22.2521 17.5335 22.6881 17.7141 23.1428 17.7141C23.5974 17.7141 24.0334 17.5335 24.3549 17.212C24.6764 16.8905 24.857 16.4545 24.857 15.9998C24.857 15.5451 24.6764 15.1091 24.3549 14.7876C24.0334 14.4661 23.5974 14.2855 23.1428 14.2855C22.6881 14.2855 22.2521 14.4661 21.9306 14.7876C21.6091 15.1091 21.4285 15.5451 21.4285 15.9998ZM7.14297 15.9998C7.14297 16.4545 7.32358 16.8905 7.64507 17.212C7.96655 17.5335 8.40258 17.7141 8.85723 17.7141C9.31188 17.7141 9.74792 17.5335 10.0694 17.212C10.3909 16.8905 10.5715 16.4545 10.5715 15.9998C10.5715 15.5451 10.3909 15.1091 10.0694 14.7876C9.74792 14.4661 9.31188 14.2855 8.85723 14.2855C8.40258 14.2855 7.96655 14.4661 7.64507 14.7876C7.32358 15.1091 7.14297 15.5451 7.14297 15.9998ZM30.757 9.79988C29.9498 7.88204 28.7927 6.16064 27.3177 4.68208C25.8531 3.21209 24.1143 2.04362 22.1999 1.24284C20.2357 0.417852 18.15 0 16 0H15.9286C13.7643 0.0107142 11.6679 0.43928 9.69651 1.28213C7.79852 2.09112 6.07607 3.26166 4.62514 4.72851C3.16445 6.20349 2.01803 7.91776 1.22519 9.82845C0.403769 11.807 -0.0105115 13.9105 0.000202614 16.0748C0.0123212 18.555 0.599094 20.9987 1.71447 23.214V28.6425C1.71447 29.0782 1.88755 29.4961 2.19564 29.8042C2.50373 30.1123 2.9216 30.2853 3.3573 30.2853H8.78938C11.0047 31.4007 13.4484 31.9875 15.9286 31.9996H16.0036C18.1428 31.9996 20.2178 31.5853 22.1714 30.7746C24.0761 29.9834 25.8083 28.8285 27.2713 27.3747C28.7463 25.914 29.907 24.2068 30.7177 22.3033C31.5605 20.3319 31.9891 18.2355 31.9998 16.0712C32.0105 13.8963 31.5891 11.7856 30.757 9.79988ZM25.3606 25.4425C22.8571 27.9211 19.5357 29.2853 16 29.2853H15.9393C13.7857 29.2746 11.6465 28.7389 9.75722 27.7318L9.45723 27.5711H4.42872V22.5426L4.26801 22.2426C3.26088 20.3533 2.72517 18.2141 2.71445 16.0605C2.70017 12.4998 4.06087 9.15703 6.55726 6.6392C9.05009 4.12138 12.3822 2.72854 15.9429 2.71425H16.0036C17.7893 2.71425 19.5214 3.06068 21.1535 3.74638C22.7463 4.41423 24.1749 5.37493 25.4035 6.60349C26.6284 7.82847 27.5927 9.2606 28.2606 10.8534C28.9534 12.5034 29.2998 14.2534 29.2927 16.0605C29.2713 19.6176 27.8749 22.9497 25.3606 25.4425Z" fill="#01BAF8"/>
<defs>
<linearGradient id="paint0_linear" x1="16.4571" y1="1.82861" x2="16.4571" y2="33.8419" gradientUnits="userSpaceOnUse">
<stop stop-color="#0C66DF" stop-opacity="0.52"/>
<stop offset="1" stop-color="white" stop-opacity="0"/>
</linearGradient>
</defs>
</svg>
