<svg width="24" height="24" viewBox="0 0 24 24" fill="none" xmlns="http://www.w3.org/2000/svg">
<path d="M9.95278 20.3976C9.43078 20.3976 8.93638 20.154 8.61958 19.734L4.33198 14.0688C4.19942 13.8938 4.10264 13.6944 4.04718 13.482C3.99172 13.2697 3.97866 13.0484 4.00875 12.831C4.03884 12.6136 4.11149 12.4042 4.22255 12.2149C4.3336 12.0255 4.48089 11.8599 4.65598 11.7276C4.83101 11.5946 5.03055 11.4975 5.24317 11.4419C5.45579 11.3862 5.67731 11.373 5.89503 11.4031C6.11274 11.4332 6.32238 11.506 6.51192 11.6173C6.70146 11.7285 6.86718 11.8761 6.99958 12.0516L9.82078 15.7764L16.914 4.38595C17.1492 4.00987 17.524 3.74245 17.9562 3.64234C18.3883 3.54223 18.8425 3.61762 19.2192 3.85195C20.0028 4.33915 20.244 5.37115 19.7544 6.15595L11.3736 19.608C11.2305 19.8386 11.0333 20.0309 10.7991 20.1681C10.5649 20.3052 10.3007 20.3832 10.0296 20.3952C10.0032 20.3976 9.97918 20.3976 9.95278 20.3976Z" fill="#1144D5"/>
</svg>
