<svg width="38" height="38" viewBox="0 0 38 38" fill="none" xmlns="http://www.w3.org/2000/svg">
<circle cx="19" cy="19" r="18.5" stroke="white" stroke-opacity="0.8"/>
<path d="M26.3125 14.4701C25.7747 14.7022 25.1893 14.8691 24.5864 14.9342C25.2124 14.5623 25.6811 13.9748 25.9047 13.2818C25.3173 13.6313 24.6738 13.8763 24.0028 14.0061C23.7223 13.7062 23.3831 13.4674 23.0063 13.3044C22.6295 13.1414 22.2231 13.0577 21.8125 13.0586C20.1514 13.0586 18.8155 14.4051 18.8155 16.0574C18.8155 16.2895 18.8436 16.5215 18.8893 16.7447C16.402 16.6147 14.1836 15.4264 12.7088 13.607C12.4401 14.066 12.2993 14.5886 12.301 15.1205C12.301 16.1611 12.8301 17.0787 13.637 17.6184C13.1615 17.5996 12.6971 17.4689 12.2817 17.2369V17.2738C12.2817 18.7311 13.3118 19.9387 14.6846 20.2164C14.4269 20.2834 14.1617 20.3176 13.8954 20.3184C13.7002 20.3184 13.5157 20.299 13.3293 20.2727C13.709 21.4609 14.8147 22.324 16.1313 22.3522C15.1012 23.159 13.811 23.6336 12.41 23.6336C12.1586 23.6336 11.9266 23.6248 11.6858 23.5967C13.0147 24.4492 14.5915 24.9414 16.2895 24.9414C21.802 24.9414 24.8184 20.3746 24.8184 16.4107C24.8184 16.2807 24.8184 16.1506 24.8096 16.0205C25.3932 15.5934 25.9047 15.0643 26.3125 14.4701Z" fill="white"/>
</svg>
