<svg width="38" height="38" viewBox="0 0 38 38" fill="none" xmlns="http://www.w3.org/2000/svg">
<circle cx="19" cy="19" r="18.5" stroke="white" stroke-opacity="0.8"/>
<g clip-path="url(#clip0)">
<path d="M19.0011 12C17.0984 12 16.8613 12.0092 16.1166 12.0407C15.369 12.0774 14.8632 12.1934 14.417 12.3666C13.9499 12.5429 13.5269 12.819 13.1775 13.1756C12.82 13.5242 12.5438 13.9474 12.3686 14.415C12.1953 14.8612 12.0794 15.367 12.0426 16.1147C12.009 16.8597 12.002 17.0964 12.002 18.9991C12.002 20.9018 12.0111 21.1389 12.0426 21.8836C12.0794 22.6291 12.1953 23.137 12.3686 23.5833C12.5449 24.0503 12.821 24.4733 13.1775 24.8227C13.5261 25.1802 13.9493 25.4565 14.417 25.6316C14.8632 25.8027 15.3711 25.9208 16.1166 25.9576C16.8617 25.9913 17.0984 25.9983 19.0011 25.9983C20.9038 25.9983 21.1409 25.9891 21.8855 25.9576C22.631 25.9208 23.139 25.8023 23.5852 25.6316C24.0523 25.4553 24.4752 25.1792 24.8246 24.8227C25.1827 24.4745 25.4589 24.0511 25.6336 23.5833C25.8046 23.137 25.9228 22.6291 25.9595 21.8836C25.9932 21.1385 26.0002 20.9018 26.0002 18.9991C26.0002 17.0964 25.991 16.8593 25.9595 16.1147C25.9228 15.3692 25.8042 14.8586 25.6336 14.415C25.4573 13.948 25.1812 13.525 24.8246 13.1756C24.4764 12.8176 24.0531 12.5413 23.5852 12.3666C23.139 12.1934 22.631 12.0774 21.8855 12.0407C21.1405 12.007 20.9038 12 19.0011 12ZM19.0011 13.26C20.8696 13.26 21.0928 13.2692 21.8313 13.3007C22.5125 13.3326 22.8835 13.4464 23.1298 13.5426C23.4343 13.655 23.7099 13.8339 23.9365 14.0663C24.1685 14.292 24.3467 14.567 24.458 14.8709C24.5543 15.1172 24.668 15.4882 24.7 16.1694C24.7315 16.9079 24.7406 17.1314 24.7406 18.9996C24.7406 20.8677 24.7315 21.0913 24.6973 21.8298C24.6606 22.5109 24.5468 22.8819 24.451 23.1283C24.3185 23.4568 24.1706 23.6865 23.9265 23.935C23.6991 24.1659 23.4236 24.344 23.1197 24.4565C22.8765 24.5527 22.5002 24.6665 21.8164 24.6984C21.074 24.7299 20.8552 24.7391 18.9818 24.7391C17.1085 24.7391 16.8901 24.7299 16.1468 24.6958C15.4656 24.6591 15.0898 24.5453 14.8435 24.4495C14.511 24.3169 14.2831 24.1691 14.039 23.9249C13.7926 23.6786 13.636 23.4441 13.5153 23.1182C13.4173 22.8749 13.3053 22.4987 13.269 21.8149C13.244 21.0812 13.2322 20.8537 13.2322 18.9891C13.2322 17.1253 13.244 16.8974 13.269 16.1545C13.3053 15.4707 13.4173 15.0953 13.5153 14.8512C13.636 14.5182 13.7931 14.2908 14.039 14.0444C14.2826 13.8007 14.511 13.6432 14.8435 13.5199C15.0898 13.4241 15.4565 13.3103 16.1403 13.2762C16.8827 13.2495 17.1015 13.2399 18.9722 13.2399L19.0011 13.26ZM19.0011 15.4068C18.5292 15.4066 18.0618 15.4995 17.6258 15.68C17.1898 15.8605 16.7936 16.1252 16.4599 16.4588C16.1262 16.7925 15.8616 17.1887 15.6811 17.6247C15.5005 18.0608 15.4077 18.5281 15.4079 19C15.4077 19.4719 15.5005 19.9392 15.6811 20.3753C15.8616 20.8113 16.1262 21.2075 16.4599 21.5412C16.7936 21.8748 17.1898 22.1395 17.6258 22.32C18.0618 22.5005 18.5292 22.5934 19.0011 22.5932C19.473 22.5934 19.9403 22.5005 20.3763 22.32C20.8124 22.1395 21.2085 21.8748 21.5422 21.5412C21.8759 21.2075 22.1406 20.8113 22.3211 20.3753C22.5016 19.9392 22.5944 19.4719 22.5943 19C22.5944 18.5281 22.5016 18.0608 22.3211 17.6247C22.1406 17.1887 21.8759 16.7925 21.5422 16.4588C21.2085 16.1252 20.8124 15.8605 20.3763 15.68C19.9403 15.4995 19.473 15.4066 19.0011 15.4068ZM19.0011 21.3332C17.7113 21.3332 16.6679 20.2898 16.6679 19C16.6679 17.7102 17.7113 16.6668 19.0011 16.6668C20.2908 16.6668 21.3343 17.7102 21.3343 19C21.3343 20.2898 20.2908 21.3332 19.0011 21.3332ZM23.5791 15.2633C23.5788 15.4863 23.4901 15.7001 23.3324 15.8576C23.1746 16.0152 22.9607 16.1038 22.7378 16.1038C22.6275 16.1038 22.5183 16.082 22.4165 16.0398C22.3146 15.9977 22.2221 15.9358 22.1441 15.8578C22.0661 15.7799 22.0043 15.6873 21.9621 15.5855C21.9199 15.4836 21.8982 15.3744 21.8982 15.2642C21.8982 15.1539 21.9199 15.0448 21.9621 14.9429C22.0043 14.841 22.0661 14.7485 22.1441 14.6705C22.2221 14.5926 22.3146 14.5307 22.4165 14.4885C22.5183 14.4463 22.6275 14.4246 22.7378 14.4246C23.2002 14.4246 23.5791 14.8009 23.5791 15.2633Z" fill="white"/>
</g>
<defs>
<clipPath id="clip0">
<rect width="14" height="14" fill="white" transform="translate(12 12)"/>
</clipPath>
</defs>
</svg>
